<mxfile host="65bd71144e">
    <diagram id="Gdg1U6lKWxDlv6Z0fWpr" name="Page-1">
        <mxGraphModel dx="902" dy="420" grid="1" gridSize="10" guides="1" tooltips="1" connect="1" arrows="1" fold="1" page="1" pageScale="1" pageWidth="850" pageHeight="1100" math="0" shadow="0">
            <root>
                <mxCell id="0"/>
                <mxCell id="1" parent="0"/>
                <mxCell id="2" value="built environment&lt;br&gt;(buildings, roads)" style="shape=parallelogram;perimeter=parallelogramPerimeter;whiteSpace=wrap;html=1;fixedSize=1;" vertex="1" parent="1">
                    <mxGeometry x="30" y="570" width="120" height="60" as="geometry"/>
                </mxCell>
                <mxCell id="3" value="potential &lt;br&gt;multi-shelter area" style="shape=parallelogram;perimeter=parallelogramPerimeter;whiteSpace=wrap;html=1;fixedSize=1;" vertex="1" parent="1">
                    <mxGeometry x="690" y="570" width="120" height="60" as="geometry"/>
                </mxCell>
                <mxCell id="4" value="size of a shelter" style="shape=parallelogram;perimeter=parallelogramPerimeter;whiteSpace=wrap;html=1;fixedSize=1;" vertex="1" parent="1">
                    <mxGeometry x="225" y="150" width="120" height="60" as="geometry"/>
                </mxCell>
                <mxCell id="5" value="min. 3,5m2 per person; average household size is 3,23&lt;br&gt;" style="text;html=1;strokeColor=none;fillColor=none;align=center;verticalAlign=middle;whiteSpace=wrap;rounded=0;" vertex="1" parent="1">
                    <mxGeometry x="200" y="210" width="170" height="40" as="geometry"/>
                </mxCell>
                <mxCell id="6" value="3.5 * 4 = 14m2 minimum for a 4-person household" style="text;html=1;strokeColor=none;fillColor=none;align=center;verticalAlign=middle;whiteSpace=wrap;rounded=0;" vertex="1" parent="1">
                    <mxGeometry x="200" y="250" width="170" height="40" as="geometry"/>
                </mxCell>
                <mxCell id="7" value="assumption that the minimum width is 3m and shelters can be located side to side" style="text;html=1;strokeColor=none;fillColor=none;align=center;verticalAlign=middle;whiteSpace=wrap;rounded=0;" vertex="1" parent="1">
                    <mxGeometry x="445" y="220" width="190" height="50" as="geometry"/>
                </mxCell>
                <mxCell id="8" value="" style="endArrow=classic;html=1;" edge="1" parent="1">
                    <mxGeometry width="50" height="50" relative="1" as="geometry">
                        <mxPoint x="385" y="250" as="sourcePoint"/>
                        <mxPoint x="445" y="250" as="targetPoint"/>
                    </mxGeometry>
                </mxCell>
                <mxCell id="9" value="" style="endArrow=classic;html=1;" edge="1" parent="1">
                    <mxGeometry width="50" height="50" relative="1" as="geometry">
                        <mxPoint x="545" y="290" as="sourcePoint"/>
                        <mxPoint x="545" y="330" as="targetPoint"/>
                    </mxGeometry>
                </mxCell>
                <mxCell id="10" value="5 length * 6m width" style="text;html=1;align=center;verticalAlign=middle;resizable=0;points=[];autosize=1;strokeColor=none;fillColor=none;" vertex="1" parent="1">
                    <mxGeometry x="475" y="400" width="130" height="30" as="geometry"/>
                </mxCell>
                <mxCell id="12" value="assumption that shelters are placed with more than 2" style="text;html=1;strokeColor=none;fillColor=none;align=center;verticalAlign=middle;whiteSpace=wrap;rounded=0;" vertex="1" parent="1">
                    <mxGeometry x="470" y="350" width="140" height="30" as="geometry"/>
                </mxCell>
            </root>
        </mxGraphModel>
    </diagram>
</mxfile>